<svg width="1964px" height="320px" viewBox="0 0 1964 320" version="1.1" xmlns="http://www.w3.org/2000/svg" xmlns:xlink="http://www.w3.org/1999/xlink">
    <title>编组 2</title>
    <defs>
        <path d="M213.722148,3.20559245 C217.63326,5.29727756 220.702722,8.36674045 222.794408,12.2778516 C224.85064,16.1226726 225.96196,19.9368822 225.999041,30.2284881 L226,195.233378 C226,205.931602 224.886093,209.811037 222.794408,213.722148 C220.702722,217.63326 217.63326,220.702722 213.722148,222.794408 C209.811037,224.886093 205.931602,226 195.233378,226 L30.7666224,226 C20.0683975,226 16.1889627,224.886093 12.2778516,222.794408 C8.36674045,220.702722 5.29727756,217.63326 3.20559245,213.722148 C1.14935962,209.877327 0.0380404605,206.063118 0.000959326264,195.771512 L1.47875756e-12,30.7666224 C1.47744741e-12,20.0683975 1.11390733,16.1889627 3.20559245,12.2778516 C5.29727756,8.36674045 8.36674045,5.29727756 12.2778516,3.20559245 C16.1226726,1.14935962 19.9368822,0.0380404605 30.2284881,0.000959326262 L195.233378,-4.53504343e-13 C205.931602,-4.55469575e-13 209.811037,1.11390733 213.722148,3.20559245 Z M162,64 L64,64 L64,162 L162,162 L162,64 Z" id="path-1"></path>
        <linearGradient x1="50%" y1="6.95213193%" x2="50%" y2="100%" id="linearGradient-3">
            <stop stop-color="#008CFF" offset="0%"></stop>
            <stop stop-color="#0063FF" offset="100%"></stop>
        </linearGradient>
        <linearGradient x1="50%" y1="7.52933084%" x2="50%" y2="90.9153735%" id="linearGradient-4">
            <stop stop-color="#04A6FF" offset="0%"></stop>
            <stop stop-color="#1CC6FF" offset="100%"></stop>
        </linearGradient>
        <radialGradient cx="90.4025396%" cy="31.7002625%" fx="90.4025396%" fy="31.7002625%" r="149.547625%" gradientTransform="translate(0.904025,0.317003),scale(0.283186,1.000000),rotate(134.788412),translate(-0.904025,-0.317003)" id="radialGradient-5">
            <stop stop-color="#51D6FF" offset="0%"></stop>
            <stop stop-color="#04A6FF" offset="100%"></stop>
        </radialGradient>
        <linearGradient x1="0%" y1="0%" x2="83.4936414%" y2="87.8723086%" id="linearGradient-6">
            <stop stop-color="#FF8384" offset="0%"></stop>
            <stop stop-color="#FF4553" offset="100%"></stop>
        </linearGradient>
        <rect id="path-7" x="63.9461761" y="63.9461761" width="98" height="98"></rect>
        <filter x="-7.7%" y="-7.7%" width="115.3%" height="115.3%" filterUnits="objectBoundingBox" id="filter-9">
            <feGaussianBlur stdDeviation="5.5" in="SourceAlpha" result="shadowBlurInner1"></feGaussianBlur>
            <feOffset dx="0" dy="4" in="shadowBlurInner1" result="shadowOffsetInner1"></feOffset>
            <feComposite in="shadowOffsetInner1" in2="SourceAlpha" operator="arithmetic" k2="-1" k3="1" result="shadowInnerInner1"></feComposite>
            <feColorMatrix values="0 0 0 0 0   0 0 0 0 0.423529412   0 0 0 0 1  0 0 0 0.2 0" type="matrix" in="shadowInnerInner1"></feColorMatrix>
        </filter>
    </defs>
    <g id="页面-1" stroke="none" stroke-width="1" fill="none" fill-rule="evenodd">
        <g id="Logo_Normal备份" transform="translate(-51.000000, -60.000000)">
            <g id="编组-2" transform="translate(51.000000, 60.000000)">
                <g id="Draft1" transform="translate(159.806133, 159.806133) rotate(-45.000000) translate(-159.806133, -159.806133) translate(46.806133, 46.806133)">
                    <mask id="mask-2" fill="white">
                        <use xlink:href="#path-1"></use>
                    </mask>
                    <use id="形状结合" fill="#D8D8D8" xlink:href="#path-1"></use>
                    <g id="编组" mask="url(#mask-2)">
                        <g transform="translate(-0.000000, 0.000000)">
                            <rect id="矩形备份" fill="#0E89FF" transform="translate(110.500000, 194.000000) rotate(-360.000000) translate(-110.500000, -194.000000) " x="59" y="162" width="103" height="64"></rect>
                            <path d="M1.59161573e-11,64 L64,64 L64,226 L18.1294061,226 C11.8254166,226 9.53943774,225.343624 7.23479341,224.111087 C4.93014909,222.878549 3.12145074,221.069851 1.88891346,218.765207 C0.656376191,216.460562 1.5922112e-11,214.174583 1.59059086e-11,207.870594 L1.59161573e-11,64 L1.59161573e-11,64 Z" id="矩形" fill="url(#linearGradient-3)" transform="translate(32.000000, 145.000000) rotate(-360.000000) translate(-32.000000, -145.000000) "></path>
                            <rect id="矩形备份-5" fill="url(#linearGradient-4)" transform="translate(194.000000, 145.000000) rotate(-360.000000) translate(-194.000000, -145.000000) " x="162" y="64" width="64" height="162"></rect>
                            <path d="M18.1294061,4.81529776e-13 L207.870594,4.8390151e-13 C214.174583,4.82743486e-13 216.460562,0.656376191 218.765207,1.88891346 C221.069851,3.12145074 222.878549,4.93014909 224.111087,7.23479341 C225.343624,9.53943774 226,11.8254166 226,18.1294061 L226,64 L226,64 L-1.59161573e-12,64 L-1.59112743e-12,18.1294061 C-1.59189944e-12,11.8254166 0.656376191,9.53943774 1.88891346,7.23479341 C3.12145074,4.93014909 4.93014909,3.12145074 7.23479341,1.88891346 C9.53943774,0.656376191 11.8254166,4.84121531e-13 18.1294061,4.81529776e-13 Z" id="矩形备份-2" fill="#04A6FF" transform="translate(113.000000, 32.000000) rotate(-360.000000) translate(-113.000000, -32.000000) "></path>
                            <path d="M18.1294061,4.53108067e-13 L207.870594,4.55479801e-13 C214.174583,4.54321777e-13 216.460562,0.656376191 218.765207,1.88891346 C221.069851,3.12145074 222.878549,4.93014909 224.111087,7.23479341 C225.343624,9.53943774 226,11.8254166 226,18.1294061 L226,64 L226,64 L-1.36424205e-12,64 L-1.36375375e-12,18.1294061 C-1.36452577e-12,11.8254166 0.656376191,9.53943774 1.88891346,7.23479341 C3.12145074,4.93014909 4.93014909,3.12145074 7.23479341,1.88891346 C9.53943774,0.656376191 11.8254166,4.55699822e-13 18.1294061,4.53108067e-13 Z" id="矩形备份-2" fill="url(#radialGradient-5)" opacity="0.8" transform="translate(113.000000, 32.000000) rotate(-360.000000) translate(-113.000000, -32.000000) "></path>
                        </g>
                    </g>
                    <path d="M162,162 L226,162 L226,207.870594 C226,214.174583 225.343624,216.460562 224.111087,218.765207 C222.878549,221.069851 221.069851,222.878549 218.765207,224.111087 C216.460562,225.343624 214.174583,226 207.870594,226 L162,226 L162,226 L162,162 Z" id="矩形备份-4" fill="url(#linearGradient-6)" mask="url(#mask-2)" transform="translate(194.000000, 194.000000) rotate(-360.000000) translate(-194.000000, -194.000000) "></path>
                    <mask id="mask-8" fill="white">
                        <use xlink:href="#path-7"></use>
                    </mask>
                    <g id="shadow" fill="black" fill-opacity="1">
                        <use filter="url(#filter-9)" xlink:href="#path-7"></use>
                    </g>
                </g>
                <path d="M430.248,227 L430.248,164.884 L450.812,164.884 C458.726667,164.884 466.217333,164.106667 473.284,162.552 C480.350667,160.997333 486.534,158.488667 491.834,155.026 C497.134,151.563333 501.338667,147.005333 504.448,141.352 C507.557333,135.698667 509.112,128.702667 509.112,120.364 C509.112,112.590667 507.769333,105.948 505.084,100.436 C502.398667,94.924 498.582667,90.4013333 493.636,86.868 C488.689333,83.3346667 482.753333,80.7906667 475.828,79.236 C468.902667,77.6813333 461.129333,76.904 452.508,76.904 L452.508,76.904 L403.536,76.904 L403.536,227 L430.248,227 Z M448.904,142.412 L430.248,142.412 L430.248,99.376 L449.752,99.376 C453.850667,99.376 457.843333,99.6233333 461.73,100.118 C465.616667,100.612667 469.079333,101.637333 472.118,103.192 C475.156667,104.746667 477.594667,106.902 479.432,109.658 C481.269333,112.414 482.188,115.982667 482.188,120.364 C482.188,124.886667 481.269333,128.561333 479.432,131.388 C477.594667,134.214667 475.121333,136.440667 472.012,138.066 C468.902667,139.691333 465.369333,140.822 461.412,141.458 C457.454667,142.094 453.285333,142.412 448.904,142.412 L448.904,142.412 Z M547.272,227 L547.272,172.516 C547.272,170.678667 547.625333,168.205333 548.332,165.096 C549.038667,161.986667 550.381333,158.948 552.36,155.98 C554.338667,153.012 557.094667,150.468 560.628,148.348 C564.161333,146.228 568.825333,145.168 574.62,145.168 C575.750667,145.168 576.916667,145.238667 578.118,145.38 C579.319333,145.521333 580.768,145.804 582.464,146.228 L582.464,146.228 L582.464,122.908 C581.616,122.625333 580.626667,122.448667 579.496,122.378 C578.365333,122.307333 577.305333,122.272 576.316,122.272 C569.532,122.272 563.596,124.109333 558.508,127.784 C553.42,131.458667 549.462667,136.264 546.636,142.2 L546.636,142.2 L546.212,142.2 L546.212,125.24 L521.832,125.24 L521.832,227 L547.272,227 Z M644.58,229.968 C652.212,229.968 659.42,228.625333 666.204,225.94 C672.988,223.254667 678.853333,219.544667 683.8,214.81 C688.746667,210.075333 692.668667,204.386667 695.566,197.744 C698.463333,191.101333 699.912,183.752 699.912,175.696 C699.912,167.64 698.463333,160.326 695.566,153.754 C692.668667,147.182 688.746667,141.564 683.8,136.9 C678.853333,132.236 672.988,128.632 666.204,126.088 C659.42,123.544 652.212,122.272 644.58,122.272 C636.948,122.272 629.74,123.544 622.956,126.088 C616.172,128.632 610.306667,132.236 605.36,136.9 C600.413333,141.564 596.491333,147.182 593.594,153.754 C590.696667,160.326 589.248,167.64 589.248,175.696 C589.248,183.752 590.696667,191.101333 593.594,197.744 C596.491333,204.386667 600.413333,210.075333 605.36,214.81 C610.306667,219.544667 616.172,223.254667 622.956,225.94 C629.74,228.625333 636.948,229.968 644.58,229.968 Z M644.58,208.768 C639.492,208.768 635.110667,207.778667 631.436,205.8 C627.761333,203.821333 624.722667,201.277333 622.32,198.168 C619.917333,195.058667 618.115333,191.525333 616.914,187.568 C615.712667,183.610667 615.112,179.653333 615.112,175.696 C615.112,171.738667 615.712667,167.816667 616.914,163.93 C618.115333,160.043333 619.917333,156.545333 622.32,153.436 C624.722667,150.326667 627.761333,147.818 631.436,145.91 C635.110667,144.002 639.492,143.048 644.58,143.048 C649.668,143.048 654.049333,144.002 657.724,145.91 C661.398667,147.818 664.437333,150.326667 666.84,153.436 C669.242667,156.545333 671.044667,160.043333 672.246,163.93 C673.447333,167.816667 674.048,171.738667 674.048,175.696 C674.048,179.653333 673.447333,183.610667 672.246,187.568 C671.044667,191.525333 669.242667,195.058667 666.84,198.168 C664.437333,201.277333 661.398667,203.821333 657.724,205.8 C654.049333,207.778667 649.668,208.768 644.58,208.768 Z M798.704,230.816 C811.565333,230.816 822.801333,228.519333 832.412,223.926 C842.022667,219.332667 850.149333,212.866667 856.792,204.528 L856.792,204.528 L835.38,189.476 C831.564,194.705333 826.546667,198.91 820.328,202.09 C814.109333,205.27 806.972,206.86 798.916,206.86 C791.142667,206.86 784.146667,205.517333 777.928,202.832 C771.709333,200.146667 766.374,196.366 761.922,191.49 C757.47,186.614 754.042667,180.784 751.64,174 C749.237333,167.216 748.036,159.725333 748.036,151.528 C748.036,143.754667 749.272667,136.546667 751.746,129.904 C754.219333,123.261333 757.752667,117.466667 762.346,112.52 C766.939333,107.573333 772.416,103.686667 778.776,100.86 C785.136,98.0333333 792.202667,96.62 799.976,96.62 C806.053333,96.62 812.272,97.8566667 818.632,100.33 C824.992,102.803333 830.150667,106.725333 834.108,112.096 L834.108,112.096 L854.46,95.984 C851.492,92.0266667 847.888,88.6346667 843.648,85.808 C839.408,82.9813333 834.885333,80.614 830.08,78.706 C825.274667,76.798 820.257333,75.3846667 815.028,74.466 C809.798667,73.5473333 804.781333,73.088 799.976,73.088 C788.386667,73.088 777.645333,74.9253333 767.752,78.6 C757.858667,82.2746667 749.272667,87.504 741.994,94.288 C734.715333,101.072 728.991333,109.304667 724.822,118.986 C720.652667,128.667333 718.568,139.514667 718.568,151.528 C718.568,163.258667 720.546667,173.964667 724.504,183.646 C728.461333,193.327333 733.973333,201.666 741.04,208.662 C748.106667,215.658 756.551333,221.099333 766.374,224.986 C776.196667,228.872667 786.973333,230.816 798.704,230.816 Z M918.908,229.968 C926.54,229.968 933.748,228.625333 940.532,225.94 C947.316,223.254667 953.181333,219.544667 958.128,214.81 C963.074667,210.075333 966.996667,204.386667 969.894,197.744 C972.791333,191.101333 974.24,183.752 974.24,175.696 C974.24,167.64 972.791333,160.326 969.894,153.754 C966.996667,147.182 963.074667,141.564 958.128,136.9 C953.181333,132.236 947.316,128.632 940.532,126.088 C933.748,123.544 926.54,122.272 918.908,122.272 C911.276,122.272 904.068,123.544 897.284,126.088 C890.5,128.632 884.634667,132.236 879.688,136.9 C874.741333,141.564 870.819333,147.182 867.922,153.754 C865.024667,160.326 863.576,167.64 863.576,175.696 C863.576,183.752 865.024667,191.101333 867.922,197.744 C870.819333,204.386667 874.741333,210.075333 879.688,214.81 C884.634667,219.544667 890.5,223.254667 897.284,225.94 C904.068,228.625333 911.276,229.968 918.908,229.968 Z M918.908,208.768 C913.82,208.768 909.438667,207.778667 905.764,205.8 C902.089333,203.821333 899.050667,201.277333 896.648,198.168 C894.245333,195.058667 892.443333,191.525333 891.242,187.568 C890.040667,183.610667 889.44,179.653333 889.44,175.696 C889.44,171.738667 890.040667,167.816667 891.242,163.93 C892.443333,160.043333 894.245333,156.545333 896.648,153.436 C899.050667,150.326667 902.089333,147.818 905.764,145.91 C909.438667,144.002 913.82,143.048 918.908,143.048 C923.996,143.048 928.377333,144.002 932.052,145.91 C935.726667,147.818 938.765333,150.326667 941.168,153.436 C943.570667,156.545333 945.372667,160.043333 946.574,163.93 C947.775333,167.816667 948.376,171.738667 948.376,175.696 C948.376,179.653333 947.775333,183.610667 946.574,187.568 C945.372667,191.525333 943.570667,195.058667 941.168,198.168 C938.765333,201.277333 935.726667,203.821333 932.052,205.8 C928.377333,207.778667 923.996,208.768 918.908,208.768 Z M1024.272,227 L1024.272,171.032 C1024.272,167.64 1024.73133,164.283333 1025.65,160.962 C1026.56867,157.640667 1027.91133,154.708 1029.678,152.164 C1031.44467,149.62 1033.74133,147.535333 1036.568,145.91 C1039.39467,144.284667 1042.716,143.472 1046.532,143.472 C1053.03333,143.472 1057.80333,145.556667 1060.842,149.726 C1063.88067,153.895333 1065.4,159.16 1065.4,165.52 L1065.4,165.52 L1065.4,227 L1090.84,227 L1090.84,171.456 C1090.84,168.205333 1091.264,164.919333 1092.112,161.598 C1092.96,158.276667 1094.30267,155.273333 1096.14,152.588 C1097.97733,149.902667 1100.30933,147.712 1103.136,146.016 C1105.96267,144.32 1109.35467,143.472 1113.312,143.472 C1117.41067,143.472 1120.69667,144.32 1123.17,146.016 C1125.64333,147.712 1127.58667,149.867333 1129,152.482 C1130.41333,155.096667 1131.332,158.029333 1131.756,161.28 C1132.18,164.530667 1132.392,167.64 1132.392,170.608 L1132.392,170.608 L1132.392,227 L1157.832,227 L1157.832,163.4 C1157.832,158.170667 1157.12533,153.082667 1155.712,148.136 C1154.29867,143.189333 1152.07267,138.808 1149.034,134.992 C1145.99533,131.176 1142.10867,128.102 1137.374,125.77 C1132.63933,123.438 1126.95067,122.272 1120.308,122.272 C1112.676,122.272 1106.03333,123.932667 1100.38,127.254 C1094.72667,130.575333 1090.204,135.345333 1086.812,141.564 C1083.98533,135.769333 1079.95733,131.105333 1074.728,127.572 C1069.49867,124.038667 1062.92667,122.272 1055.012,122.272 C1050.91333,122.272 1047.168,122.802 1043.776,123.862 C1040.384,124.922 1037.38067,126.370667 1034.766,128.208 C1032.15133,130.045333 1029.89,132.094667 1027.982,134.356 C1026.074,136.617333 1024.55467,139.02 1023.424,141.564 L1023.424,141.564 L1023,141.564 L1023,125.24 L998.832,125.24 L998.832,227 L1024.272,227 Z M1212.952,277.88 L1212.952,213.432 L1213.376,213.432 C1216.62667,218.52 1221.25533,222.548 1227.262,225.516 C1233.26867,228.484 1239.876,229.968 1247.084,229.968 C1254.85733,229.968 1261.818,228.519333 1267.966,225.622 C1274.114,222.724667 1279.34333,218.838 1283.654,213.962 C1287.96467,209.086 1291.286,203.362 1293.618,196.79 C1295.95,190.218 1297.116,183.186667 1297.116,175.696 C1297.116,168.205333 1295.91467,161.209333 1293.512,154.708 C1291.10933,148.206667 1287.71733,142.553333 1283.336,137.748 C1278.95467,132.942667 1273.72533,129.162 1267.648,126.406 C1261.57067,123.65 1254.928,122.272 1247.72,122.272 C1243.056,122.272 1238.85133,122.802 1235.106,123.862 C1231.36067,124.922 1228.004,126.264667 1225.036,127.89 C1222.068,129.515333 1219.55933,131.352667 1217.51,133.402 C1215.46067,135.451333 1213.8,137.465333 1212.528,139.444 L1212.528,139.444 L1211.892,139.444 L1211.892,125.24 L1187.512,125.24 L1187.512,277.88 L1212.952,277.88 Z M1241.996,208.768 C1237.332,208.768 1233.16267,207.814 1229.488,205.906 C1225.81333,203.998 1222.66867,201.489333 1220.054,198.38 C1217.43933,195.270667 1215.46067,191.772667 1214.118,187.886 C1212.77533,183.999333 1212.104,180.077333 1212.104,176.12 C1212.104,172.162667 1212.77533,168.205333 1214.118,164.248 C1215.46067,160.290667 1217.43933,156.757333 1220.054,153.648 C1222.66867,150.538667 1225.81333,147.994667 1229.488,146.016 C1233.16267,144.037333 1237.332,143.048 1241.996,143.048 C1246.94267,143.048 1251.25333,144.002 1254.928,145.91 C1258.60267,147.818 1261.64133,150.326667 1264.044,153.436 C1266.44667,156.545333 1268.24867,160.043333 1269.45,163.93 C1270.65133,167.816667 1271.252,171.738667 1271.252,175.696 C1271.252,179.653333 1270.65133,183.610667 1269.45,187.568 C1268.24867,191.525333 1266.44667,195.058667 1264.044,198.168 C1261.64133,201.277333 1258.60267,203.821333 1254.928,205.8 C1251.25333,207.778667 1246.94267,208.768 1241.996,208.768 Z M1371.104,229.968 C1378.736,229.968 1385.944,228.625333 1392.728,225.94 C1399.512,223.254667 1405.37733,219.544667 1410.324,214.81 C1415.27067,210.075333 1419.19267,204.386667 1422.09,197.744 C1424.98733,191.101333 1426.436,183.752 1426.436,175.696 C1426.436,167.64 1424.98733,160.326 1422.09,153.754 C1419.19267,147.182 1415.27067,141.564 1410.324,136.9 C1405.37733,132.236 1399.512,128.632 1392.728,126.088 C1385.944,123.544 1378.736,122.272 1371.104,122.272 C1363.472,122.272 1356.264,123.544 1349.48,126.088 C1342.696,128.632 1336.83067,132.236 1331.884,136.9 C1326.93733,141.564 1323.01533,147.182 1320.118,153.754 C1317.22067,160.326 1315.772,167.64 1315.772,175.696 C1315.772,183.752 1317.22067,191.101333 1320.118,197.744 C1323.01533,204.386667 1326.93733,210.075333 1331.884,214.81 C1336.83067,219.544667 1342.696,223.254667 1349.48,225.94 C1356.264,228.625333 1363.472,229.968 1371.104,229.968 Z M1371.104,208.768 C1366.016,208.768 1361.63467,207.778667 1357.96,205.8 C1354.28533,203.821333 1351.24667,201.277333 1348.844,198.168 C1346.44133,195.058667 1344.63933,191.525333 1343.438,187.568 C1342.23667,183.610667 1341.636,179.653333 1341.636,175.696 C1341.636,171.738667 1342.23667,167.816667 1343.438,163.93 C1344.63933,160.043333 1346.44133,156.545333 1348.844,153.436 C1351.24667,150.326667 1354.28533,147.818 1357.96,145.91 C1361.63467,144.002 1366.016,143.048 1371.104,143.048 C1376.192,143.048 1380.57333,144.002 1384.248,145.91 C1387.92267,147.818 1390.96133,150.326667 1393.364,153.436 C1395.76667,156.545333 1397.56867,160.043333 1398.77,163.93 C1399.97133,167.816667 1400.572,171.738667 1400.572,175.696 C1400.572,179.653333 1399.97133,183.610667 1398.77,187.568 C1397.56867,191.525333 1395.76667,195.058667 1393.364,198.168 C1390.96133,201.277333 1387.92267,203.821333 1384.248,205.8 C1380.57333,207.778667 1376.192,208.768 1371.104,208.768 Z M1476.468,227 L1476.468,171.032 C1476.468,167.64 1476.96267,164.283333 1477.952,160.962 C1478.94133,157.640667 1480.39,154.708 1482.298,152.164 C1484.206,149.62 1486.644,147.535333 1489.612,145.91 C1492.58,144.284667 1496.11333,143.472 1500.212,143.472 C1504.31067,143.472 1507.59667,144.32 1510.07,146.016 C1512.54333,147.712 1514.48667,149.867333 1515.9,152.482 C1517.31333,155.096667 1518.232,158.029333 1518.656,161.28 C1519.08,164.530667 1519.292,167.64 1519.292,170.608 L1519.292,170.608 L1519.292,227 L1544.732,227 L1544.732,163.4 C1544.732,158.170667 1544.02533,153.082667 1542.612,148.136 C1541.19867,143.189333 1538.97267,138.808 1535.934,134.992 C1532.89533,131.176 1529.00867,128.102 1524.274,125.77 C1519.53933,123.438 1513.85067,122.272 1507.208,122.272 C1499.576,122.272 1492.96867,124.215333 1487.386,128.102 C1481.80333,131.988667 1477.88133,136.476 1475.62,141.564 L1475.62,141.564 L1475.196,141.564 L1475.196,125.24 L1451.028,125.24 L1451.028,227 L1476.468,227 Z M1623.172,229.968 C1642.252,229.968 1656.80933,223.184 1666.844,209.616 L1666.844,209.616 L1649.884,196.048 C1647.05733,200.146667 1643.45333,203.362 1639.072,205.694 C1634.69067,208.026 1629.32,209.192 1622.96,209.192 C1619.28533,209.192 1615.752,208.556 1612.36,207.284 C1608.968,206.012 1605.92933,204.280667 1603.244,202.09 C1600.55867,199.899333 1598.40333,197.284667 1596.778,194.246 C1595.15267,191.207333 1594.19867,187.850667 1593.916,184.176 L1593.916,184.176 L1671.296,184.176 C1671.43733,183.045333 1671.508,181.914667 1671.508,180.784 L1671.508,180.784 L1671.508,177.392 C1671.508,168.205333 1670.27133,160.184667 1667.798,153.33 C1665.32467,146.475333 1661.89733,140.751333 1657.516,136.158 C1653.13467,131.564667 1647.94067,128.102 1641.934,125.77 C1635.92733,123.438 1629.39067,122.272 1622.324,122.272 C1614.692,122.272 1607.59,123.579333 1601.018,126.194 C1594.446,128.808667 1588.75733,132.483333 1583.952,137.218 C1579.14667,141.952667 1575.366,147.676667 1572.61,154.39 C1569.854,161.103333 1568.476,168.558667 1568.476,176.756 C1568.476,185.094667 1569.854,192.55 1572.61,199.122 C1575.366,205.694 1579.182,211.241333 1584.058,215.764 C1588.934,220.286667 1594.69333,223.784667 1601.336,226.258 C1607.97867,228.731333 1615.25733,229.968 1623.172,229.968 Z M1646.068,165.944 L1593.916,165.944 C1594.48133,158.736 1597.414,152.835333 1602.714,148.242 C1608.014,143.648667 1614.48,141.352 1622.112,141.352 C1626.21067,141.352 1629.77933,142.023333 1632.818,143.366 C1635.85667,144.708667 1638.36533,146.510667 1640.344,148.772 C1642.32267,151.033333 1643.77133,153.648 1644.69,156.616 C1645.60867,159.584 1646.068,162.693333 1646.068,165.944 L1646.068,165.944 Z M1721.54,227 L1721.54,171.032 C1721.54,167.64 1722.03467,164.283333 1723.024,160.962 C1724.01333,157.640667 1725.462,154.708 1727.37,152.164 C1729.278,149.62 1731.716,147.535333 1734.684,145.91 C1737.652,144.284667 1741.18533,143.472 1745.284,143.472 C1749.38267,143.472 1752.66867,144.32 1755.142,146.016 C1757.61533,147.712 1759.55867,149.867333 1760.972,152.482 C1762.38533,155.096667 1763.304,158.029333 1763.728,161.28 C1764.152,164.530667 1764.364,167.64 1764.364,170.608 L1764.364,170.608 L1764.364,227 L1789.804,227 L1789.804,163.4 C1789.804,158.170667 1789.09733,153.082667 1787.684,148.136 C1786.27067,143.189333 1784.04467,138.808 1781.006,134.992 C1777.96733,131.176 1774.08067,128.102 1769.346,125.77 C1764.61133,123.438 1758.92267,122.272 1752.28,122.272 C1744.648,122.272 1738.04067,124.215333 1732.458,128.102 C1726.87533,131.988667 1722.95333,136.476 1720.692,141.564 L1720.692,141.564 L1720.268,141.564 L1720.268,125.24 L1696.1,125.24 L1696.1,227 L1721.54,227 Z M1855.736,229.12 C1858.56267,229.12 1861.53067,228.872667 1864.64,228.378 C1867.74933,227.883333 1870.43467,227.212 1872.696,226.364 L1872.696,226.364 L1871.848,206.436 C1870.29333,207.142667 1868.52667,207.672667 1866.548,208.026 C1864.56933,208.379333 1862.732,208.556 1861.036,208.556 C1855.38267,208.556 1851.74333,207.072 1850.118,204.104 C1848.49267,201.136 1847.68,197.390667 1847.68,192.868 L1847.68,192.868 L1847.68,145.592 L1873.12,145.592 L1873.12,125.24 L1847.68,125.24 L1847.68,95.772 L1822.664,95.772 L1822.664,125.24 L1804.856,125.24 L1804.856,145.592 L1822.664,145.592 L1822.664,193.08 C1822.664,198.026667 1823.12333,202.655333 1824.042,206.966 C1824.96067,211.276667 1826.65667,215.092667 1829.13,218.414 C1831.60333,221.735333 1834.96,224.35 1839.2,226.258 C1843.44,228.166 1848.952,229.12 1855.736,229.12 Z M1921.244,229.968 C1926.756,229.968 1932.09133,229.367333 1937.25,228.166 C1942.40867,226.964667 1946.93133,225.021333 1950.818,222.336 C1954.70467,219.650667 1957.814,216.152667 1960.146,211.842 C1962.478,207.531333 1963.644,202.266667 1963.644,196.048 C1963.644,191.101333 1962.65467,186.896667 1960.676,183.434 C1958.69733,179.971333 1956.118,177.074 1952.938,174.742 C1949.758,172.41 1946.22467,170.537333 1942.338,169.124 C1938.45133,167.710667 1934.6,166.58 1930.784,165.732 C1923.576,164.036 1918.09933,162.375333 1914.354,160.75 C1910.60867,159.124667 1908.736,156.333333 1908.736,152.376 C1908.736,148.418667 1910.432,145.592 1913.824,143.896 C1917.216,142.2 1920.96133,141.352 1925.06,141.352 C1929.724,141.352 1934.03467,142.447333 1937.992,144.638 C1941.94933,146.828667 1945.05867,149.408 1947.32,152.376 L1947.32,152.376 L1963.856,137.748 C1959.75733,132.518667 1954.21,128.632 1947.214,126.088 C1940.218,123.544 1933.04533,122.272 1925.696,122.272 C1920.608,122.272 1915.66133,122.908 1910.856,124.18 C1906.05067,125.452 1901.74,127.395333 1897.924,130.01 C1894.108,132.624667 1891.034,135.981333 1888.702,140.08 C1886.37,144.178667 1885.204,149.054667 1885.204,154.708 C1885.204,159.513333 1886.052,163.541333 1887.748,166.792 C1889.444,170.042667 1891.70533,172.763333 1894.532,174.954 C1897.35867,177.144667 1900.574,178.911333 1904.178,180.254 C1907.782,181.596667 1911.492,182.692 1915.308,183.54 C1923.08133,185.377333 1928.91133,187.214667 1932.798,189.052 C1936.68467,190.889333 1938.628,193.928 1938.628,198.168 C1938.628,200.429333 1938.13333,202.337333 1937.144,203.892 C1936.15467,205.446667 1934.84733,206.683333 1933.222,207.602 C1931.59667,208.520667 1929.83,209.192 1927.922,209.616 C1926.014,210.04 1924.14133,210.252 1922.304,210.252 C1916.792,210.252 1911.77467,209.050667 1907.252,206.648 C1902.72933,204.245333 1899.05467,201.206667 1896.228,197.532 L1896.228,197.532 L1879.48,213.22 C1884.42667,218.590667 1890.64533,222.724667 1898.136,225.622 C1905.62667,228.519333 1913.32933,229.968 1921.244,229.968 Z" id="ProComponents" fill="#242424" fill-rule="nonzero"></path>
            </g>
        </g>
    </g>
</svg>